<svg width="24" height="22" viewBox="0 0 24 22" fill="currentColor" xmlns="http://www.w3.org/2000/svg">
<g clip-path="url(#clip0_567_6643)">
<path d="M11.0215 0.216663C11.6423 -0.0708374 12.359 -0.0708374 12.9798 0.216663L22.0882 4.425C22.4423 4.5875 22.6673 4.94166 22.6673 5.33333C22.6673 5.725 22.4423 6.07916 22.0882 6.24166L12.9798 10.45C12.359 10.7375 11.6423 10.7375 11.0215 10.45L1.91315 6.24166C1.55898 6.075 1.33398 5.72083 1.33398 5.33333C1.33398 4.94583 1.55898 4.5875 1.91315 4.425L11.0215 0.216663ZM19.8715 8.73333L22.0882 9.75833C22.4423 9.92083 22.6673 10.275 22.6673 10.6667C22.6673 11.0583 22.4423 11.4125 22.0882 11.575L12.9798 15.7833C12.359 16.0708 11.6423 16.0708 11.0215 15.7833L1.91315 11.575C1.55898 11.4083 1.33398 11.0542 1.33398 10.6667C1.33398 10.2792 1.55898 9.92083 1.91315 9.75833L4.12982 8.73333L10.4632 11.6583C11.4382 12.1083 12.5632 12.1083 13.5382 11.6583L19.8715 8.73333ZM13.5382 16.9917L19.8715 14.0667L22.0882 15.0917C22.4423 15.2542 22.6673 15.6083 22.6673 16C22.6673 16.3917 22.4423 16.7458 22.0882 16.9083L12.9798 21.1167C12.359 21.4042 11.6423 21.4042 11.0215 21.1167L1.91315 16.9083C1.55898 16.7417 1.33398 16.3875 1.33398 16C1.33398 15.6125 1.55898 15.2542 1.91315 15.0917L4.12982 14.0667L10.4632 16.9917C11.4382 17.4417 12.5632 17.4417 13.5382 16.9917Z" fill="url(#paint0_linear_567_6643)"/>
</g>
<defs>
<linearGradient id="paint0_linear_567_6643" x1="1.83107" y1="9.8472" x2="21.8595" y2="9.8472" gradientUnits="userSpaceOnUse">
<stop stop-color="#A01028"/>
<stop offset="1" stop-color="#FFBA35"/>
</linearGradient>
<clipPath id="clip0_567_6643">
<rect width="24" height="21.3333" fill="white"/>
</clipPath>
</defs>
</svg>
